<svg width="54" height="23" viewBox="0 0 54 23" fill="none" xmlns="http://www.w3.org/2000/svg">
<path d="M52.03 12.4997C52.8583 12.4831 53.5163 11.7983 53.4997 10.97C53.4831 10.1417 52.7983 9.48373 51.97 9.5003L52.03 12.4997ZM0.928339 10.9606C0.354383 11.5579 0.373374 12.5075 0.970757 13.0815L10.7057 22.4346C11.3031 23.0086 12.2526 22.9896 12.8266 22.3922C13.4005 21.7948 13.3815 20.8453 12.7841 20.2713L4.13089 11.9574L12.4448 3.30413C13.0188 2.70674 12.9998 1.75719 12.4024 1.18323C11.805 0.609273 10.8554 0.628264 10.2815 1.22565L0.928339 10.9606ZM51.97 9.5003L1.98 10.5001L2.03999 13.4995L52.03 12.4997L51.97 9.5003Z" fill="#1EB8D4"/>
</svg>
